# xmcd CD database file
#
# Track frame offsets:
#	150
#	18261
#	49224
#	66867
#	83047
#	98209
#	111505
#	124427
#	144479
#	163892
#	176693
#	189945
#	211963
#	225186
#	240205
#	258024
#	275009
#	292579
#	305636
#	324711
#
# Disc length: 4558 seconds
#
# Revision: 2
# Processed by: cddbd v1.5.2PL0 Copyright (c) Steve Scherf et al.
# Submitted via: CDex 1.70beta2
#
DISCID=1711cc14
DTITLE=Various Artist - Motown 50-2
DYEAR=2008
DGENRE=Soul
TTITLE0=Stevie Wonder - Superstition
TTITLE1=Temptations - Papa Was A Rollin' Stone
TTITLE2=Marvin Gaye - What's Going On
TTITLE3=Commodores - Brick House
TTITLE4=Edwin Starr - War
TTITLE5=Temptations - My Girl
TTITLE6=Smokey Robinson and The Miracles - The Tracks Of My Tears
TTITLE7=Lionel Richie and Diana Ross - Endless Love
TTITLE8=Commodores - Easy
TTITLE9=Diana Ross and The Supremes - Reflections
TTITLE10=Four Tops - Reach Out, I'll Be There
TTITLE11=Marvin Gaye - Let's Get It On
TTITLE12=Jimmy Ruffin - What Becomes Of The Brokenhearted
TTITLE13=Michael Jackson - Got To Be There
TTITLE14=Smokey Robinson - Being With You
TTITLE15=Diana Ross - I'm Still Waiting
TTITLE16=Stevie Wonder - Sir Duke
TTITLE17=Miracles - Love Machine
TTITLE18=Lionel Richie - All Night Long (All Night)
TTITLE19=Diana Ross - Love Hangover
EXTD=YEAR: 2008
EXTT0=
EXTT1=
EXTT2=
EXTT3=
EXTT4=
EXTT5=
EXTT6=
EXTT7=
EXTT8=
EXTT9=
EXTT10=
EXTT11=
EXTT12=
EXTT13=
EXTT14=
EXTT15=
EXTT16=
EXTT17=
EXTT18=
EXTT19=
PLAYORDER=
